<?xml version="1.0" encoding="utf-8"?>
<svg version="1.0" width="284.000000pt" height="300.000000pt" viewBox="51.481 0 188.644 182.413" preserveAspectRatio="xMidYMid meet" xmlns="http://www.w3.org/2000/svg">
  <g transform="translate(0.000000,300.000000) scale(0.100000,-0.100000)" fill="#000000" stroke="none">
    <path d="M 1367 2976 C 1239 2940 1160 2807 1189 2676 C 1196 2646 1211 2607 1223 2589 C 1251 2548 1323 2492 1358 2484 C 1373 2481 1391 2477 1398 2474 C 1403.539 2377.318 1399.414 2163.697 1408 2073 L 1405 1675 L 1216 1675 L 1028 1675 L 1009 1726 C 970 1829 879 1893 770 1893 C 668 1893 595 1852 542 1761 C 519 1722 515 1704 515 1640 C 515 1554 533 1507 587 1455 C 642 1402 685 1385 770 1385 C 834 1385 852 1389 893 1413 C 947 1445 1006 1519 1015 1567 L 1021 1600 L 1215 1600 L 1410 1600 L 1410 1400 L 1410 1200 L 1440 1200 L 1470 1200 L 1472 1605 L 1475 2011 L 1669 2011 L 1864 2012 L 1878 1965 C 1887 1940 1910 1900 1931 1876 C 2026 1769 2187 1761 2304 1859 C 2340 1889 2380 1990 2380 2050 C 2380 2154 2304 2261 2211 2288 C 2153 2306 2061 2302 2015 2281 C 1960 2255 1903 2193 1881 2134 L 1862 2085 L 1666 2082 L 1470 2080 L 1470 2275 C 1470 2423 1473 2472 1483 2474 C 1489 2477 1507 2481 1522 2484 C 1564 2493 1631 2550 1664 2605 C 1690 2649 1694 2664 1695 2730 C 1695 2794 1691 2812 1668 2851 C 1604 2960 1486 3009 1367 2976 Z M 1543 2889 C 1700 2786 1629 2540 1443 2540 C 1337 2540 1261 2610 1252 2715 C 1239 2874 1410 2977 1543 2889 Z M 2232 2204 C 2301 2156 2329 2076 2306 1995 C 2287 1931 2232 1877 2169 1860 C 2063 1831 1951 1906 1934 2017 C 1909 2183 2094 2299 2232 2204 Z M 854 1807 C 952 1752 986 1649 939 1554 C 904 1485 846 1450 765 1450 C 712 1450 697 1454 663 1479 C 541 1568 546 1729 674 1805 C 728 1838 800 1838 854 1807 Z"/>
  </g>
</svg>